# 3ds Max Wavefront OBJ Exporter v0.97b - (c)2007 guruware
# File Created: 16.06.2020 15:17:33

mtllib Block111.mtl

#
# object Box002
#

v  10.0000 0.0000 -0.0000
v  4.9259 10.0000 -0.0000
v  10.0000 9.0967 -0.0000
v  3.0165 10.0000 4.0763
v  8.4640 10.0000 0.9415
v  0.5476 9.2292 3.8389
v  0.0000 10.0000 4.6474
v  0.0000 0.0000 10.0000
v  0.0000 8.1920 10.0000
v  0.0000 10.0000 8.7023
v  0.0000 5.7865 4.1717
v  0.0000 10.0000 2.5004
v  10.0000 10.0000 10.0000
v  10.0000 10.0000 0.9041
v  1.4197 10.0000 10.0000
v  0.0000 10.0000 -0.0000
v  0.0000 0.0000 -0.0000
v  10.0000 0.8539 10.0000
v  8.8709 0.0000 10.0000
v  10.0000 0.0000 9.1355
# 20 vertices

vn 0.4082 -0.8165 -0.4082
vn -0.4082 -0.8165 -0.4082
vn -0.4082 0.8165 -0.4082
vn 0.0000 1.0000 -0.0000
vn -0.1384 0.6683 -0.7309
vn -1.0000 0.0000 -0.0000
vn -0.4082 -0.8165 0.4082
vn -0.7947 0.0681 -0.6031
vn -0.2949 0.7709 0.5646
vn -0.8686 0.1827 0.4605
vn -0.5962 0.4681 0.6522
vn 0.0000 0.0000 1.0000
vn 0.0000 -1.0000 -0.0000
vn 1.0000 0.0000 -0.0000
vn 0.4738 -0.6265 0.6189
vn 0.1057 0.7981 -0.5932
vn 0.0000 0.0000 -1.0000
# 17 vertex normals

vt 0.0000 0.0000 0.0000
vt 0.5074 1.0000 0.0000
vt 0.0000 0.9097 0.0000
vt 0.4926 1.0000 0.0000
vt 0.3017 0.5924 0.0000
vt 0.9118 0.9485 0.0000
vt 0.0000 0.6161 0.0000
vt 0.0000 0.5353 0.0000
vt 1.0000 0.0000 0.0000
vt 1.0000 0.8192 0.0000
vt 0.8702 1.0000 0.0000
vt 0.4172 0.5787 0.0000
vt 0.4647 1.0000 0.0000
vt 0.3839 1.0000 0.0000
vt 0.0000 0.7500 0.0000
vt 0.2500 1.0000 0.0000
vt 1.0000 0.9096 0.0000
vt 0.1420 0.0000 0.0000
vt 0.0000 1.0000 0.0000
vt 0.0000 0.1298 0.0000
vt 0.1420 1.0000 0.0000
vt 1.0000 0.0854 0.0000
vt 0.0000 0.8192 0.0000
vt 0.8871 0.0000 0.0000
vt 0.1129 0.0000 0.0000
vt 1.0000 1.0000 0.0000
vt 0.0000 0.0864 0.0000
vt 0.0864 0.0000 0.0000
vt 0.9096 1.0000 0.0000
vt 0.0000 0.0854 0.0000
vt 1.0000 0.9097 0.0000
# 31 texture coords

o Box002
g Box002
usemtl wire_115115115
s 1
f 1/1/1 2/2/2 3/3/3 
s 2
f 2/4/4 4/5/4 5/6/4 
s 1
f 4/5/5 6/7/5 7/8/5 
s 4
f 8/9/6 9/10/6 10/11/6 11/12/7 
s 8
f 11/12/8 7/13/8 6/14/8 
s 16
f 4/5/9 12/15/9 6/7/9 
s 32
f 6/14/10 12/16/10 11/12/10 
s 2
f 4/5/4 13/9/4 14/17/4 5/6/4 
f 4/5/4 15/18/4 13/9/4 
s 4
f 11/12/6 12/16/6 16/19/6 17/1/6 
f 11/12/6 17/1/6 8/9/6 
s 1
f 10/20/11 9/10/11 15/21/11 
s 8
f 18/22/12 15/21/12 9/23/12 19/24/12 
s 2
f 19/25/13 17/26/13 1/19/13 20/27/13 
s 4
f 20/28/14 14/29/14 13/19/14 18/30/14 
s 1
f 19/24/15 20/27/15 18/30/15 
s 8
f 14/17/16 3/31/16 2/2/16 5/6/16 
s 2
f 4/5/4 7/8/4 10/20/4 
f 4/5/4 10/20/4 15/18/4 
s 8
f 18/22/12 13/26/12 15/21/12 
f 9/23/12 8/1/12 19/24/12 
s 4
f 20/28/14 1/9/14 3/31/14 14/29/14 
s 1
f 1/1/17 17/9/17 16/26/17 2/2/17 
s 4
f 10/11/6 7/13/6 11/12/6 
s 2
f 2/4/4 16/19/4 12/15/4 4/5/4 
f 19/25/13 8/9/13 17/26/13 
# 10 polygons - 16 triangles

