# 3ds Max Wavefront OBJ Exporter v0.97b - (c)2007 guruware
# File Created: 16.06.2020 15:18:38

#
# object Box002
#

v  20.0000 0.0000 -0.0000
v  9.8518 10.0000 -0.0000
v  20.0000 9.0967 -0.0000
v  6.0331 10.0000 8.1526
v  16.9280 10.0000 1.8831
v  1.0951 9.2292 7.6779
v  0.0000 10.0000 9.2949
v  0.0000 0.0000 20.0000
v  0.0000 8.1920 20.0000
v  0.0000 10.0000 17.4045
v  0.0000 5.7865 8.3435
v  0.0000 10.0000 5.0007
v  20.0000 10.0000 20.0000
v  20.0000 10.0000 1.8082
v  2.8393 10.0000 20.0000
v  0.0000 10.0000 -0.0000
v  0.0000 0.0000 -0.0000
v  20.0000 0.8539 20.0000
v  17.7419 0.0000 20.0000
v  20.0000 0.0000 18.2711
# 20 vertices

vn 0.5773 -0.5774 -0.5773
vn -0.5773 -0.5773 -0.5774
vn -0.5774 0.5773 -0.5774
vn 0.0000 1.0000 -0.0000
vn -0.0905 0.8738 -0.4778
vn -1.0000 0.0000 -0.0000
vn -0.5773 -0.5774 0.5773
vn -0.7892 0.1353 -0.5990
vn -0.1768 0.9242 0.3384
vn -0.8282 0.3483 0.4391
vn -0.4631 0.7272 0.5066
vn 0.0000 0.0000 1.0000
vn 0.0000 -1.0000 -0.0000
vn 1.0000 0.0000 -0.0000
vn 0.3211 -0.8491 0.4194
vn 0.0620 0.9356 -0.3477
vn 0.0000 0.0000 -1.0000
# 17 vertex normals

vt 0.0000 0.0000 0.0000
vt 0.5074 1.0000 0.0000
vt 0.0000 0.9097 0.0000
vt 0.4926 1.0000 0.0000
vt 0.3017 0.5924 0.0000
vt 0.9118 0.9485 0.0000
vt 0.0000 0.6161 0.0000
vt 0.0000 0.5353 0.0000
vt 1.0000 0.0000 0.0000
vt 1.0000 0.8192 0.0000
vt 0.8702 1.0000 0.0000
vt 0.4172 0.5787 0.0000
vt 0.4647 1.0000 0.0000
vt 0.3839 1.0000 0.0000
vt 0.0000 0.7500 0.0000
vt 0.2500 1.0000 0.0000
vt 1.0000 0.9096 0.0000
vt 0.1420 0.0000 0.0000
vt 0.0000 1.0000 0.0000
vt 0.0000 0.1298 0.0000
vt 0.1420 1.0000 0.0000
vt 1.0000 0.0854 0.0000
vt 0.0000 0.8192 0.0000
vt 0.8871 0.0000 0.0000
vt 0.1129 0.0000 0.0000
vt 1.0000 1.0000 0.0000
vt 0.0000 0.0864 0.0000
vt 0.0864 0.0000 0.0000
vt 0.9096 1.0000 0.0000
vt 0.0000 0.0854 0.0000
vt 1.0000 0.9097 0.0000
# 31 texture coords

o Box002
g Box002
s 1
f 1/1/1 2/2/2 3/3/3 
s 2
f 2/4/4 4/5/4 5/6/4 
s 1
f 4/5/5 6/7/5 7/8/5 
s 4
f 8/9/6 9/10/6 10/11/6 11/12/7 
s 8
f 11/12/8 7/13/8 6/14/8 
s 16
f 4/5/9 12/15/9 6/7/9 
s 32
f 6/14/10 12/16/10 11/12/10 
s 2
f 4/5/4 13/9/4 14/17/4 5/6/4 
f 4/5/4 15/18/4 13/9/4 
s 4
f 11/12/6 12/16/6 16/19/6 17/1/6 
f 11/12/6 17/1/6 8/9/6 
s 1
f 10/20/11 9/10/11 15/21/11 
s 8
f 18/22/12 15/21/12 9/23/12 19/24/12 
s 2
f 19/25/13 17/26/13 1/19/13 20/27/13 
s 4
f 20/28/14 14/29/14 13/19/14 18/30/14 
s 1
f 19/24/15 20/27/15 18/30/15 
s 8
f 14/17/16 3/31/16 2/2/16 5/6/16 
s 2
f 4/5/4 7/8/4 10/20/4 
f 4/5/4 10/20/4 15/18/4 
s 8
f 18/22/12 13/26/12 15/21/12 
f 9/23/12 8/1/12 19/24/12 
s 4
f 20/28/14 1/9/14 3/31/14 14/29/14 
s 1
f 1/1/17 17/9/17 16/26/17 2/2/17 
s 4
f 10/11/6 7/13/6 11/12/6 
s 2
f 2/4/4 16/19/4 12/15/4 4/5/4 
f 19/25/13 8/9/13 17/26/13 
# 10 polygons - 16 triangles

