# 3ds Max Wavefront OBJ Exporter v0.97b - (c)2007 guruware
# File Created: 17.06.2020 11:42:05

#
# object Box001
#

v  10.0000 0.0000 -0.0000
v  10.0000 0.0000 10.0000
v  0.0000 0.0000 10.0000
v  -0.0000 0.0000 0.0000
v  0.0000 10.0000 10.0000
v  10.0000 10.0000 10.0000
# 6 vertices

vn 0.5470 -0.3206 -0.7733
vn 0.5774 -0.5774 0.5774
vn -0.5774 -0.5774 0.5774
vn -0.5470 -0.3206 -0.7733
vn -0.5470 0.7733 0.3206
vn 0.5470 0.7733 0.3206
# 6 vertex normals

vt 1.0000 0.0000 0.0000
vt 1.0000 1.0000 0.0000
vt 0.0000 1.0000 0.0000
vt 0.0000 0.0000 0.0000
# 4 texture coords

o Box001
g Box001
f 1/1/1 2/2/2 3/3/3 4/4/4 
f 1/4/1 4/1/4 5/2/5 6/3/6 
f 4/4/4 3/1/3 5/2/5 
f 3/4/3 2/1/2 6/2/6 5/3/5 
f 2/4/2 1/2/1 6/3/6 
# 3 polygons - 2 triangles

